<svg xmlns="http://www.w3.org/2000/svg" viewBox="0 0 512 512"><path d="M394.668 0H32.001c-17.673 0-32 14.327-32 32v256c0 17.673 14.327 32 32 32h138.667v-21.333H32.001c-5.891 0-10.667-4.776-10.667-10.667V32c0-5.891 4.776-10.667 10.667-10.667h362.667c5.891 0 10.667 4.776 10.667 10.667v192h21.333V32c0-17.673-14.327-32-32-32z"/><path d="M128.001 309.333h21.333v64h-21.333zM74.668 256c-5.891 0-10.667-4.776-10.667-10.667V224H42.668v21.333c0 17.673 14.327 32 32 32h21.333V256H74.668zm-32-74.667h21.333v21.333H42.668zm347.168 44.608a115.894 115.894 0 0 0-81.961-33.952c-64.006.003-115.891 51.892-115.889 115.898.003 64.006 51.892 115.891 115.898 115.889a115.89 115.89 0 0 0 81.937-33.937c45.263-45.255 45.27-118.634.015-163.898zM307.82 402.453c-52.224-.018-94.546-42.368-94.528-94.592.018-52.224 42.368-94.546 94.592-94.528a93.87 93.87 0 0 1 66.869 27.733 94.564 94.564 0 0 1 27.659 66.859c-.018 52.224-42.368 94.546-94.592 94.528zM508.876 464l-66.955-66.933c-2-2-4.713-3.125-7.541-3.125a10.67 10.67 0 0 0-7.541 3.125l-29.76 29.76c-4.164 4.165-4.164 10.917 0 15.083l66.955 66.965c2 2.001 4.713 3.125 7.541 3.125a10.666 10.666 0 0 0 7.541-3.157l29.76-29.76c4.164-4.166 4.164-10.918 0-15.083zm-37.302 22.251l-51.872-51.883 14.677-14.677 51.872 51.883-14.677 14.677z"/><path d="M374.75 389.828l15.085-15.085 37.199 37.2-15.085 15.084zm-65.416-155.161V256c29.441.035 53.298 23.893 53.333 53.333H384c-.046-41.217-33.448-74.619-74.666-74.666zm-202.666 128h85.333V384h-85.333zm53.333-320c-17.673 0-32 14.327-32 32 0 17.673 14.327 32 32 32s32-14.327 32-32c0-17.673-14.327-32-32-32zm0 42.666c-5.891 0-10.667-4.776-10.667-10.667s4.776-10.667 10.667-10.667 10.667 4.776 10.667 10.667c0 5.892-4.776 10.667-10.667 10.667zm74.667 32c-17.673 0-32 14.327-32 32 0 17.673 14.327 32 32 32 17.673 0 32-14.327 32-32 0-17.673-14.327-32-32-32zm0 42.667c-5.891 0-10.667-4.776-10.667-10.667s4.776-10.667 10.667-10.667 10.667 4.776 10.667 10.667c-.001 5.891-4.776 10.667-10.667 10.667z"/><path d="M88.458 131.127l53.332-53.333 15.085 15.085-53.332 53.332zm74.621-38.221l15.084-15.084 53.333 53.332-15.085 15.085zm146.255-50.239c-17.673 0-32 14.327-32 32 0 17.673 14.327 32 32 32 17.673 0 32-14.327 32-32 .001-17.673-14.326-32-32-32zm0 42.666c-5.891 0-10.667-4.776-10.667-10.667s4.776-10.667 10.667-10.667 10.667 4.776 10.667 10.667c0 5.892-4.776 10.667-10.667 10.667z"/><path d="M237.786 131.164l53.332-53.332 15.085 15.084-53.333 53.333z"/></svg>