<svg xmlns="http://www.w3.org/2000/svg" viewBox="0 0 512 512"><path fill="#fff" d="M401.067 287.834c-23.526 0-42.667 19.14-42.667 42.667 0 23.526 19.14 42.667 42.667 42.667 23.526 0 42.667-19.14 42.667-42.667-.001-23.526-19.141-42.667-42.667-42.667zm0 68.267c-14.114 0-25.6-11.486-25.6-25.6s11.486-25.6 25.6-25.6 25.6 11.486 25.6 25.6-11.486 25.6-25.6 25.6zm-290.134-68.267c-23.526 0-42.667 19.14-42.667 42.667 0 23.526 19.14 42.667 42.667 42.667 23.526 0 42.667-19.14 42.667-42.667 0-23.526-19.14-42.667-42.667-42.667zm0 68.267c-14.114 0-25.6-11.486-25.6-25.6s11.486-25.6 25.6-25.6 25.6 11.486 25.6 25.6-11.486 25.6-25.6 25.6z"/><path fill="#fff" d="M503.467 287.834v-51.2a8.525 8.525 0 0 0-5.837-8.098l-48.154-16.051c-18.133-30.711-43.059-59.938-98.142-69.589l-.307-.051c-101.717-14.063-178.091 8.883-227.123 68.224-56.687.819-115.371 18.696-115.371 51.165v25.6A8.536 8.536 0 0 0 0 296.367V330.5a8.536 8.536 0 0 0 8.533 8.533h34.133a8.536 8.536 0 0 0 8.533-8.533c0-32.939 26.795-59.733 59.733-59.733s59.733 26.795 59.733 59.733a8.536 8.536 0 0 0 8.533 8.533h153.6a8.536 8.536 0 0 0 8.533-8.533c0-32.939 26.795-59.733 59.733-59.733 32.939 0 59.733 26.795 59.733 59.733a8.536 8.536 0 0 0 8.533 8.533h34.133a8.536 8.536 0 0 0 8.533-8.533v-34.133c.004-4.71-3.819-8.533-8.529-8.533zM392.951 175.672c14.822 9.088 25.865 21.086 35.447 35.362h-35.78l.333-35.362zM290.133 155.9c18.253-.247 37.666.973 58.411 3.84 10.274 1.809 19.302 4.378 27.426 7.569l-.418 43.733h-85.419V155.9zm-17.066.726v54.417H146.961c31.633-32.632 73.344-50.663 126.106-54.417zm221.866 165.342h-17.536c-4.258-38.349-36.864-68.267-76.331-68.267s-72.073 29.918-76.331 68.267H187.264c-4.258-38.349-36.864-68.267-76.331-68.267s-72.073 29.918-76.331 68.267H17.067v-17.067a8.536 8.536 0 0 0 8.533-8.533v-25.6h8.533a8.536 8.536 0 0 0 8.533-8.533 8.536 8.536 0 0 0-8.533-8.533h-4.42c11.546-12.535 46.865-25.6 98.287-25.6h314.342l44.058 14.686v10.914h-8.533a8.536 8.536 0 0 0-8.533 8.533 8.536 8.536 0 0 0 8.533 8.533h8.533v25.6a8.536 8.536 0 0 0 8.533 8.533v17.067z"/></svg>