<svg xmlns="http://www.w3.org/2000/svg" viewBox="0 0 512 512"><g fill="#fff"><path d="M328 120c14.537 0 27.995 6.931 31.309 16.132.459 1.266.691 2.568.691 3.868 0 13.233 10.766 24 24 24s24-10.767 24-24a59.3 59.3 0 0 0-3.536-20.149c-7.872-21.85-27.438-38.258-52.966-44.747C349.231 64.21 339.556 56 328 56c-11.533 0-21.191 8.178-23.484 19.038-14.871 3.895-28.288 11.493-38.259 21.755C254.484 108.911 248 124.255 248 140c0 37.495 35.888 68 80 68 15.105 0 32 8.553 32 20s-16.895 20-32 20-32-8.553-32-20c0-13.233-10.766-24-24-24s-24 10.767-24 24c0 15.745 6.484 31.089 18.257 43.207 9.971 10.262 23.388 17.86 38.259 21.755C306.809 303.822 316.467 312 328 312s21.191-8.178 23.484-19.038c14.871-3.895 28.288-11.493 38.259-21.755C401.516 259.089 408 243.745 408 228c0-37.495-35.888-68-80-68-15.105 0-32-8.553-32-20s16.895-20 32-20zm0 56c35.29 0 64 23.327 64 52 0 23.865-20.815 45.144-49.494 50.596a8.002 8.002 0 0 0-6.506 7.859V288c0 4.411-3.589 8-8 8s-8-3.589-8-8v-1.545a7.999 7.999 0 0 0-6.506-7.859C284.815 273.144 264 251.865 264 228c0-4.411 3.589-8 8-8s8 3.589 8 8c0 19.851 21.533 36 48 36s48-16.149 48-36-21.533-36-48-36c-35.29 0-64-23.327-64-52 0-23.865 20.815-45.144 49.494-50.596A8.002 8.002 0 0 0 320 81.545V80c0-4.411 3.589-8 8-8s8 3.589 8 8v1.642a8 8 0 0 0 6.533 7.864c22.477 4.192 40.439 17.898 46.877 35.768A43.325 43.325 0 0 1 392 140c0 4.411-3.589 8-8 8s-8-3.589-8-8a27.3 27.3 0 0 0-1.641-9.301C368.696 114.979 349.633 104 328 104c-26.467 0-48 16.149-48 36s21.533 36 48 36z"/><path d="M328 0C226.542 0 144 82.542 144 184c0 47.575 18.15 90.991 47.889 123.688l-25.215 25.215c-6.15-3.86-13.267-5.936-20.707-5.936-10.436 0-20.247 4.063-27.624 11.442l-106.9 106.9C4.064 452.688 0 462.499 0 472.934s4.064 20.245 11.442 27.623C18.821 507.937 28.631 512 39.066 512s20.246-4.063 27.624-11.442l106.901-106.9c7.378-7.379 11.442-17.189 11.442-27.624 0-7.987-2.388-15.604-6.814-22.048l24.944-24.944C235.989 349.409 279.861 368 328 368c101.458 0 184-82.542 184-184S429.458 0 328 0zM162.277 382.343L55.376 489.244C51.02 493.601 45.228 496 39.066 496s-11.953-2.399-16.31-6.757C18.399 484.887 16 479.095 16 472.934s2.399-11.953 6.756-16.31l106.901-106.901a22.915 22.915 0 0 1 16.31-6.756 22.91 22.91 0 0 1 16.31 6.757c4.356 4.356 6.756 10.148 6.756 16.31s-2.399 11.952-6.756 16.309zM328 352c-92.636 0-168-75.364-168-168S235.364 16 328 16s168 75.364 168 168-75.364 168-168 168z"/><path d="M471.346 133.327c-7.526-21.292-20.005-41.012-36.086-57.027-16.085-16.021-35.861-28.42-57.188-35.857a8 8 0 0 0-5.269 15.107c38.624 13.471 69.824 44.539 83.458 83.109a8.003 8.003 0 0 0 7.542 5.336 8 8 0 0 0 7.543-10.668z"/></g></svg>