<svg height="496pt" viewBox="-11 0 496 496" width="496pt" xmlns="http://www.w3.org/2000/svg"><path d="M0 452.043C0 476.309 21.008 496 46.422 496H318.93c22.773 0 41.734-15.832 45.425-36.59C386.238 456 403 437.855 403 416.012V218h22.148a7.924 7.924 0 0 0 4.364-1.207l40.515-26.316a7.968 7.968 0 0 0 3.637-6.692c0-2.7-1.367-5.219-3.637-6.687l-40.515-26.582a8.228 8.228 0 0 0-4.364-1.516H403v-43.64a9.905 9.905 0 0 0-3.555-6.887L307.22 4.516a8.02 8.02 0 0 0-1.88-1.914l-.25-.235A7.975 7.975 0 0 0 299.384 0H84.398C61.625 0 42.5 15.836 38.808 36.59 16.927 40 0 58.145 0 79.988zM136 202v-37h281v37zm297-6.574v-23.227l17.848 11.614zM309 28.816L375.34 97h-55.65A10.45 10.45 0 0 1 309 86.754zM84.398 16H293v70.754c.121 14.621 12.07 26.371 26.691 26.246H387v36H128.398a8.746 8.746 0 0 0-8.398 8.45v1.023L96.191 158h-.07a8.218 8.218 0 0 0-8 8.246l.25 34.82a7.996 7.996 0 0 0 8 7.934H120v1.176c0 4.418 3.984 7.824 8.398 7.824h16.903l-.11 12a17.605 17.605 0 0 0 4.778 12.328A14.808 14.808 0 0 0 160.332 247h97.137a8 8 0 0 0 0-16h-96.246c-.016-1-.028-.5-.028-.621L161.31 218H387v198.012C387 431.453 373.5 444 356.91 444H84.398C67.808 444 54 431.453 54 416.012V45.227c0-.407.262-.82.262-1.243a7.629 7.629 0 0 0 0-1.035C54.848 27.984 68.184 16 84.398 16zM120 193h-15.684l-.34-18.715 16.024.188zM16 79.988c0-12.828 10-23.66 22-26.965v362.989C38 440.273 58.988 460 84.398 460h263.368c-3.7 12-15.22 20-28.836 20H46.422C29.832 480 16 467.484 16 452.043zm0 0"/><path d="M96.46 284h131.532a8 8 0 0 0 0-16H96.461c-4.422 0-8 3.582-8 8s3.578 8 8 8zm0 39h228.911c4.422 0 8-3.582 8-8s-3.578-8-8-8H96.461c-4.422 0-8 3.582-8 8s3.578 8 8 8zm0 39h228.911c4.422 0 8-3.582 8-8s-3.578-8-8-8H96.461c-4.422 0-8 3.582-8 8s3.578 8 8 8zm0 39h228.911c4.422 0 8-3.582 8-8s-3.578-8-8-8H96.461c-4.422 0-8 3.582-8 8s3.578 8 8 8zm0 0"/></svg>